<?xml version="1.0" encoding="UTF-8"?>
<svg xmlns="http://www.w3.org/2000/svg" xmlns:xlink="http://www.w3.org/1999/xlink" width="48pt" height="48pt" viewBox="0 0 48 48" version="1.1">
<g id="surface362582">
<path style=" stroke:none;fill-rule:nonzero;fill:rgb(18.039216%,80%,44.313725%);fill-opacity:1;" d="M 34.933594 22.476562 C 33.769531 21.558594 32.207031 21 30.5 21 C 28.792969 21 27.230469 21.558594 26.066406 22.476562 C 24.882812 23.414062 24.097656 24.730469 24.007812 26.226562 C 23.917969 27.761719 24.578125 29.191406 25.738281 30.246094 C 26.925781 31.324219 28.613281 32 30.5 32 C 32.386719 32 34.074219 31.324219 35.257812 30.246094 C 36.421875 29.191406 37.082031 27.761719 36.992188 26.222656 C 36.902344 24.730469 36.117188 23.414062 34.933594 22.476562 Z M 34.933594 22.476562 "/>
<path style=" stroke:none;fill-rule:nonzero;fill:rgb(18.039216%,80%,44.313725%);fill-opacity:1;" d="M 45.871094 25.933594 C 45.613281 24.109375 44.980469 22.398438 44.011719 20.835938 C 43.117188 19.402344 41.976562 18.148438 40.613281 17.09375 L 40.613281 17.089844 L 40.578125 17.078125 C 40.550781 17.054688 40.527344 17.023438 40.5 17 L 26.25 6.4375 C 25.390625 5.75 24.128906 5.886719 23.4375 6.75 C 22.746094 7.613281 22.886719 8.871094 23.75 9.5625 L 29.738281 14 L 10.5 14 C 9.125 14 8 15.125 8 16.5 C 8 17.875 9.125 19 10.5 19 L 17.652344 19 L 2.871094 31.601562 C 1.824219 32.5 1.703125 34.078125 2.601562 35.128906 C 3.097656 35.703125 3.796875 36 4.5 36 C 5.078125 36 5.65625 35.800781 6.128906 35.398438 L 15.082031 27.722656 C 15.058594 28.53125 15.042969 29.261719 15.046875 29.484375 C 15.046875 33 19 42 30.683594 42 C 39 42 45.960938 37 45.960938 28.738281 C 46.035156 27.804688 46.003906 26.867188 45.871094 25.933594 Z M 39.523438 29.152344 C 39.125 30.238281 38.476562 31.257812 37.589844 32.144531 C 35.78125 33.964844 33.246094 34.996094 30.503906 35 C 27.757812 35.003906 25.222656 33.980469 23.410156 32.167969 C 22.527344 31.28125 21.875 30.265625 21.472656 29.179688 C 21.082031 28.117188 20.929688 26.984375 21.03125 25.847656 C 21.128906 24.730469 21.460938 23.667969 22 22.703125 C 22.53125 21.757812 23.257812 20.90625 24.15625 20.179688 C 25.914062 18.765625 28.152344 18.003906 30.5 18 C 32.847656 17.996094 35.085938 18.753906 36.84375 20.164062 C 37.742188 20.882812 38.46875 21.734375 38.996094 22.679688 C 39.535156 23.640625 39.871094 24.699219 39.96875 25.816406 C 40.070312 26.957031 39.917969 28.085938 39.523438 29.152344 Z M 39.523438 29.152344 "/>
</g>
</svg>
