<?xml version="1.0" encoding="UTF-8"?>
<svg xmlns="http://www.w3.org/2000/svg" xmlns:xlink="http://www.w3.org/1999/xlink" width="48pt" height="48pt" viewBox="0 0 48 48" version="1.1">
<g id="surface348579">
<path style=" stroke:none;fill-rule:nonzero;fill:rgb(100%,100%,100%);fill-opacity:1;" d="M 36 18.140625 L 36 42 L 35 42 L 33 40 L 33 22.910156 Z M 36 18.140625 "/>
<path style=" stroke:none;fill-rule:nonzero;fill:rgb(40%,40%,40%);fill-opacity:1;" d="M 43 7 C 43 7 41 32 36 42 L 35 42 C 35 42 34.878906 32 33.5 24.5 L 33 22.910156 L 36 18.140625 Z M 12 23 L 14 23 L 14 24 L 15 40 C 15 40 13 42 7 42 C 6 42 5 42 5 42 Z M 12 23 "/>
<path style=" stroke:none;fill-rule:nonzero;fill:rgb(100%,100%,100%);fill-opacity:1;" d="M 35 42 C 35 42 41.25 24.375 43 7 L 43 42 Z M 5 7 L 5 42 L 14 24 L 14 7 Z M 5 7 "/>
<path style=" stroke:none;fill-rule:nonzero;fill:rgb(100%,100%,100%);fill-opacity:1;" d="M 28 35 L 43 7 L 31.503906 7 L 20 35 Z M 28 35 "/>
<path style=" stroke:none;fill-rule:nonzero;fill:rgb(92.54902%,94.117647%,94.509804%);fill-opacity:1;" d="M 5 7 L 16.5 6 L 28 35 L 20 35 L 14 24 Z M 5 7 "/>
</g>
</svg>
