<?xml version="1.0" encoding="UTF-8" standalone="no"?>
<!DOCTYPE svg PUBLIC "-//W3C//DTD SVG 1.1//EN" "http://www.w3.org/Graphics/SVG/1.1/DTD/svg11.dtd">
<svg width="100%" height="100%" viewBox="0 0 48 48" version="1.1" xmlns="http://www.w3.org/2000/svg" xmlns:xlink="http://www.w3.org/1999/xlink" xml:space="preserve" xmlns:serif="http://www.serif.com/" style="fill-rule:evenodd;clip-rule:evenodd;stroke-linejoin:round;stroke-miterlimit:2;">
    <g id="path14" transform="matrix(0.0271956,-6.42198e-34,-6.42198e-34,-0.0271956,-45.6195,93.6219)">
        <path d="M2179.5,2626L2558,2844.5L2936.5,2626L2936.5,2428.45L2762.19,2484.32L2762.19,2525.23L2558,2642.97L2408.59,2556.16L2936.5,2387.55L2936.5,2190L2558,1971.5L2179.5,2190L2179.5,2387.55L2354.81,2332.67L2354.81,2291.77L2558.99,2174.04L2711.39,2261.83L2179.5,2429.45L2179.5,2626ZM3391,2440.51L3120,2440.51L3120,2889.5C3120,2932.5 3085,2967.5 3042,2967.5L2593,2967.5L2593,3238.5C2593,3259.5 2578,3276.5 2559,3276.5C2540,3276.5 2525,3259.5 2525,3238.5L2525,2967.5L2075,2967.5C2032,2967.5 1997,2932.5 1997,2889.5L1997,2439.5L1728,2439.5C1707,2439.5 1690,2424.5 1690,2405.51C1690,2386.5 1707,2371.5 1728,2371.5L1997,2371.5L1997,1921.5C1997,1878.5 2032,1843.5 2075,1843.5L3043,1843.5C3086,1843.5 3121,1878.5 3121,1921.5L3121,2371.5L3392,2371.5C3413,2371.5 3430,2386.5 3430,2405.51C3430,2424.5 3412,2440.51 3391,2440.51" style="fill:rgb(240,59,34);fill-rule:nonzero;"/>
    </g>
</svg>
