<?xml version="1.0" encoding="UTF-8" standalone="no"?>
<!DOCTYPE svg PUBLIC "-//W3C//DTD SVG 1.1//EN" "http://www.w3.org/Graphics/SVG/1.1/DTD/svg11.dtd">
<svg width="100%" height="100%" viewBox="0 0 48 48" version="1.1" xmlns="http://www.w3.org/2000/svg" xmlns:xlink="http://www.w3.org/1999/xlink" xml:space="preserve" xmlns:serif="http://www.serif.com/" style="fill-rule:evenodd;clip-rule:evenodd;stroke-linejoin:round;stroke-miterlimit:2;">
    <g transform="matrix(0.327201,0,0,0.327201,0,0.896303)">
        <path d="M62.648,0.25C67.594,-0.918 72.547,2.141 73.715,7.086C74.883,12.031 71.82,16.988 66.875,18.156C61.93,19.324 56.977,16.258 55.809,11.316C54.641,6.371 57.703,1.414 62.648,0.25Z" style="fill:rgb(226,31,46);fill-rule:nonzero;"/>
        <path d="M132.199,112.219C140.207,112.219 146.699,118.711 146.699,126.719C146.699,134.727 140.207,141.219 132.199,141.219C124.191,141.219 117.699,134.727 117.699,126.719C117.699,118.711 124.191,112.219 132.199,112.219Z" style="fill:rgb(226,31,46);fill-rule:nonzero;"/>
        <path d="M6.398,120.32C9.934,120.32 12.801,123.184 12.801,126.719C12.801,130.254 9.934,133.121 6.398,133.121C2.863,133.121 0,130.254 0,126.719C0,123.184 2.863,120.32 6.398,120.32Z" style="fill:rgb(226,31,46);fill-rule:nonzero;"/>
        <path d="M26.75,62.469L64.601,40.621L102.449,62.469L102.449,82.223L85.02,76.637L85.02,72.547L64.601,60.773L49.66,69.453L102.449,86.312L102.449,106.07L64.601,127.922L26.75,106.07L26.75,86.312L44.281,91.801L44.281,95.891L64.698,107.668L79.938,98.887L26.75,82.125L26.75,62.469ZM64.698,28.121C33.699,28.121 8.602,53.219 8.602,84.219C8.602,115.219 33.699,140.32 64.698,140.32C95.699,140.32 120.801,115.219 120.801,84.219C120.801,53.219 95.699,28.121 64.698,28.121Z" style="fill:rgb(226,31,46);fill-rule:nonzero;"/>
    </g>
</svg>
