<?xml version="1.0" encoding="UTF-8" standalone="no"?>
<!DOCTYPE svg PUBLIC "-//W3C//DTD SVG 1.1//EN" "http://www.w3.org/Graphics/SVG/1.1/DTD/svg11.dtd">
<svg width="100%" height="100%" viewBox="0 0 1920 300" version="1.1" xmlns="http://www.w3.org/2000/svg" xmlns:xlink="http://www.w3.org/1999/xlink" xml:space="preserve" xmlns:serif="http://www.serif.com/" style="fill-rule:evenodd;clip-rule:evenodd;stroke-linecap:round;stroke-linejoin:round;stroke-miterlimit:1.5;">
    <g id="SCU" transform="matrix(1.70164,0,0,1.70164,-56.6078,-668.789)">
        <g transform="matrix(0.587669,-0,-0,0.587669,33.2667,393.026)">
            <path d="M1485.37,198.623L1485.58,198.638L1485.79,198.66L1486,198.69L1486.21,198.727L1486.41,198.772L1486.62,198.824L1486.82,198.883L1487.02,198.949L1487.22,199.022L1487.42,199.102L1487.61,199.189L1487.8,199.283L1487.99,199.383L1488.17,199.49L1488.35,199.604L1488.53,199.723L1488.69,199.849L1488.86,199.981L1489.02,200.118L1489.18,200.261L1489.33,200.41L1489.48,200.563L1489.62,200.722L1489.75,200.885L1489.88,201.054L1490,201.226L1490.12,201.403L1490.23,201.584L1490.33,201.769L1490.43,201.957L1490.52,202.148L1490.6,202.343L1490.68,202.54L1490.75,202.74L1490.81,202.943L1490.87,203.147L1490.92,203.353L1490.96,203.561L1490.99,203.77L1491.02,203.98L1491.04,204.191L1491.05,204.403L1491.05,204.615L1491.05,223.335L1491.05,223.546L1491.04,223.758L1491.02,223.969L1490.99,224.179L1490.96,224.388L1490.92,224.596L1490.87,224.802L1490.81,225.006L1490.75,225.209L1490.68,225.409L1490.6,225.606L1490.52,225.801L1490.43,225.992L1490.33,226.18L1490.23,226.365L1490.12,226.546L1490,226.723L1489.88,226.895L1489.75,227.064L1489.62,227.227L1489.48,227.386L1489.33,227.54L1489.18,227.688L1489.02,227.831L1488.86,227.968L1488.69,228.1L1488.53,228.226L1488.35,228.345L1488.17,228.459L1487.99,228.566L1487.8,228.666L1487.61,228.76L1487.42,228.847L1487.22,228.927L1487.02,229L1486.82,229.067L1486.62,229.126L1486.41,229.177L1486.21,229.222L1486,229.259L1485.79,229.289L1485.58,229.311L1485.37,229.326L1485.16,229.334L1484.94,229.334L1484.73,229.326L1484.52,229.311L1484.31,229.289L1484.1,229.259L1483.89,229.222L1483.68,229.177L1483.48,229.126L1483.28,229.067L1483.08,229L1482.88,228.927L1482.68,228.847L1482.49,228.76L1482.3,228.666L1482.11,228.566L1481.93,228.459L1481.75,228.345L1481.58,228.226L1481.4,228.1L1481.24,227.968L1481.08,227.831L1480.92,227.688L1480.77,227.54L1480.62,227.386L1480.48,227.227L1480.35,227.064L1480.22,226.895L1480.1,226.723L1479.98,226.546L1479.87,226.365L1479.77,226.18L1479.67,225.992L1479.58,225.801L1479.5,225.606L1479.42,225.409L1479.35,225.209L1479.29,225.006L1479.23,224.802L1479.18,224.596L1479.14,224.388L1479.11,224.179L1479.08,223.969L1479.07,223.758L1479.05,223.546L1479.05,223.335L1479.05,204.615L1479.05,204.403L1479.07,204.191L1479.08,203.98L1479.11,203.77L1479.14,203.561L1479.18,203.353L1479.23,203.147L1479.29,202.943L1479.35,202.74L1479.42,202.54L1479.5,202.343L1479.58,202.148L1479.67,201.957L1479.77,201.769L1479.87,201.584L1479.98,201.403L1480.1,201.226L1480.22,201.054L1480.35,200.885L1480.48,200.722L1480.62,200.563L1480.77,200.41L1480.92,200.261L1481.08,200.118L1481.24,199.981L1481.4,199.849L1481.58,199.723L1481.75,199.604L1481.93,199.49L1482.11,199.383L1482.3,199.283L1482.49,199.189L1482.68,199.102L1482.88,199.022L1483.08,198.949L1483.28,198.883L1483.48,198.824L1483.68,198.772L1483.89,198.727L1484.1,198.69L1484.31,198.66L1484.52,198.638L1484.73,198.623L1484.94,198.616L1485.16,198.616L1485.37,198.623Z" style="fill:rgb(252,81,48);"/>
            <path d="M80.679,213.975L1485.05,213.975" style="fill:none;stroke:rgb(252,81,48);stroke-width:12px;"/>
        </g>
    </g>
    <g id="UZH" transform="matrix(0.233534,0,0,1.70164,1622.08,-668.789)">
        <g transform="matrix(4.28202,-0,-0,0.587669,-6945.78,393.026)">
            <path d="M1647.24,198.623L1647.45,198.638L1647.66,198.66L1647.87,198.69L1648.08,198.727L1648.29,198.772L1648.49,198.824L1648.69,198.883L1648.89,198.949L1649.09,199.022L1649.29,199.102L1649.48,199.189L1649.67,199.283L1649.86,199.383L1650.04,199.49L1650.22,199.604L1650.39,199.723L1650.57,199.849L1650.73,199.981L1650.89,200.118L1651.05,200.261L1651.2,200.41L1651.35,200.563L1651.49,200.722L1651.62,200.885L1651.75,201.054L1651.87,201.226L1651.99,201.403L1652.1,201.584L1652.2,201.769L1652.3,201.957L1652.39,202.148L1652.47,202.343L1652.55,202.54L1652.62,202.74L1652.68,202.943L1652.74,203.147L1652.79,203.353L1652.83,203.561L1652.86,203.77L1652.89,203.98L1652.9,204.191L1652.92,204.403L1652.92,204.615L1652.92,223.335L1652.92,223.546L1652.9,223.758L1652.89,223.969L1652.86,224.179L1652.83,224.388L1652.79,224.596L1652.74,224.802L1652.68,225.006L1652.62,225.209L1652.55,225.409L1652.47,225.606L1652.39,225.801L1652.3,225.992L1652.2,226.18L1652.1,226.365L1651.99,226.546L1651.87,226.723L1651.75,226.895L1651.62,227.064L1651.49,227.227L1651.35,227.386L1651.2,227.54L1651.05,227.688L1650.89,227.831L1650.73,227.968L1650.57,228.1L1650.39,228.226L1650.22,228.345L1650.04,228.459L1649.86,228.566L1649.67,228.666L1649.48,228.76L1649.29,228.847L1649.09,228.927L1648.89,229L1648.69,229.067L1648.49,229.126L1648.29,229.177L1648.08,229.222L1647.87,229.259L1647.66,229.289L1647.45,229.311L1647.24,229.326L1647.03,229.334L1646.81,229.334L1646.6,229.326L1646.39,229.311L1646.18,229.289L1645.97,229.259L1645.76,229.222L1645.56,229.177L1645.35,229.126L1645.15,229.067L1644.95,229L1644.75,228.927L1644.55,228.847L1644.36,228.76L1644.17,228.666L1643.98,228.566L1643.8,228.459L1643.62,228.345L1643.44,228.226L1643.28,228.1L1643.11,227.968L1642.95,227.831L1642.79,227.688L1642.64,227.54L1642.5,227.386L1642.35,227.227L1642.22,227.064L1642.09,226.895L1641.97,226.723L1641.85,226.546L1641.74,226.365L1641.64,226.18L1641.54,225.992L1641.45,225.801L1641.37,225.606L1641.29,225.409L1641.22,225.209L1641.16,225.006L1641.1,224.802L1641.05,224.596L1641.01,224.388L1640.98,224.179L1640.95,223.969L1640.93,223.758L1640.92,223.546L1640.92,223.335L1640.92,204.615L1640.92,204.403L1640.93,204.191L1640.95,203.98L1640.98,203.77L1641.01,203.561L1641.05,203.353L1641.1,203.147L1641.16,202.943L1641.22,202.74L1641.29,202.54L1641.37,202.343L1641.45,202.148L1641.54,201.957L1641.64,201.769L1641.74,201.584L1641.85,201.403L1641.97,201.226L1642.09,201.054L1642.22,200.885L1642.35,200.722L1642.5,200.563L1642.64,200.41L1642.79,200.261L1642.95,200.118L1643.11,199.981L1643.28,199.849L1643.44,199.723L1643.62,199.604L1643.8,199.49L1643.98,199.383L1644.17,199.283L1644.36,199.189L1644.55,199.102L1644.75,199.022L1644.95,198.949L1645.15,198.883L1645.35,198.824L1645.56,198.772L1645.76,198.727L1645.97,198.69L1646.18,198.66L1646.39,198.638L1646.6,198.623L1646.81,198.616L1647.03,198.616L1647.24,198.623Z" style="fill:rgb(113,97,239);"/>
            <path d="M1646.92,213.975L1834.48,213.975" style="fill:none;stroke:rgb(113,97,239);stroke-width:12px;"/>
        </g>
    </g>
    <g id="Homework-Grader" serif:id="Homework Grader" transform="matrix(0.999963,0,0,1.70164,0.00299757,-808.763)">
        <g transform="matrix(1.00004,-0,-0,0.587669,-0.00299769,475.285)">
            <path d="M86.997,58.648L87.208,58.663L87.419,58.686L87.629,58.716L87.837,58.753L88.044,58.797L88.249,58.849L88.453,58.908L88.654,58.974L88.853,59.047L89.049,59.128L89.242,59.215L89.432,59.308L89.618,59.409L89.801,59.516L89.98,59.629L90.155,59.749L90.325,59.875L90.491,60.006L90.652,60.144L90.808,60.287L90.959,60.435L91.105,60.589L91.245,60.747L91.38,60.911L91.509,61.079L91.631,61.252L91.748,61.429L91.858,61.609L91.962,61.794L92.059,61.982L92.149,62.174L92.233,62.368L92.31,62.566L92.379,62.766L92.442,62.968L92.497,63.172L92.545,63.379L92.586,63.587L92.62,63.796L92.646,64.006L92.665,64.217L92.676,64.428L92.679,64.64L92.679,83.36L92.676,83.572L92.665,83.783L92.646,83.994L92.62,84.204L92.586,84.413L92.545,84.621L92.497,84.828L92.442,85.032L92.379,85.234L92.31,85.434L92.233,85.632L92.149,85.826L92.059,86.018L91.962,86.206L91.858,86.391L91.748,86.571L91.631,86.748L91.509,86.921L91.38,87.089L91.245,87.253L91.105,87.411L90.959,87.565L90.808,87.713L90.652,87.856L90.491,87.994L90.325,88.125L90.155,88.251L89.98,88.371L89.801,88.484L89.618,88.591L89.432,88.692L89.242,88.785L89.049,88.872L88.853,88.953L88.654,89.026L88.453,89.092L88.249,89.151L88.044,89.203L87.837,89.247L87.629,89.284L87.419,89.314L87.208,89.337L86.997,89.352L86.785,89.359L86.574,89.359L86.362,89.352L86.151,89.337L85.94,89.314L85.73,89.284L85.522,89.247L85.315,89.203L85.11,89.151L84.906,89.092L84.705,89.026L84.506,88.953L84.31,88.872L84.117,88.785L83.927,88.692L83.741,88.591L83.558,88.484L83.379,88.371L83.204,88.251L83.034,88.125L82.868,87.994L82.707,87.856L82.551,87.713L82.4,87.565L82.254,87.411L82.114,87.253L81.979,87.089L81.85,86.921L81.728,86.748L81.611,86.571L81.501,86.391L81.397,86.206L81.3,86.018L81.21,85.826L81.126,85.632L81.049,85.434L80.98,85.234L80.917,85.032L80.862,84.828L80.814,84.621L80.773,84.413L80.739,84.204L80.713,83.994L80.694,83.783L80.683,83.572L80.679,83.36L80.679,64.64L80.683,64.428L80.694,64.217L80.713,64.006L80.739,63.796L80.773,63.587L80.814,63.379L80.862,63.172L80.917,62.968L80.98,62.766L81.049,62.566L81.126,62.368L81.21,62.174L81.3,61.982L81.397,61.794L81.501,61.609L81.611,61.429L81.728,61.252L81.85,61.079L81.979,60.911L82.114,60.747L82.254,60.589L82.4,60.435L82.551,60.287L82.707,60.144L82.868,60.006L83.034,59.875L83.204,59.749L83.379,59.629L83.558,59.516L83.741,59.409L83.927,59.308L84.117,59.215L84.31,59.128L84.506,59.047L84.705,58.974L84.906,58.908L85.11,58.849L85.315,58.797L85.522,58.753L85.73,58.716L85.94,58.686L86.151,58.663L86.362,58.648L86.574,58.641L86.785,58.641L86.997,58.648Z" style="fill:rgb(36,251,202);"/>
            <path d="M903.797,58.648L904.008,58.663L904.219,58.686L904.429,58.716L904.637,58.753L904.844,58.797L905.049,58.849L905.253,58.908L905.454,58.974L905.653,59.047L905.849,59.128L906.042,59.215L906.232,59.308L906.418,59.409L906.601,59.516L906.78,59.629L906.955,59.749L907.125,59.875L907.291,60.006L907.452,60.144L907.608,60.287L907.759,60.435L907.905,60.589L908.045,60.747L908.18,60.911L908.309,61.079L908.431,61.252L908.548,61.429L908.658,61.609L908.762,61.794L908.859,61.982L908.949,62.174L909.033,62.368L909.11,62.566L909.179,62.766L909.242,62.968L909.297,63.172L909.345,63.379L909.386,63.587L909.42,63.796L909.446,64.006L909.465,64.217L909.476,64.428L909.479,64.64L909.479,83.36L909.476,83.572L909.465,83.783L909.446,83.994L909.42,84.204L909.386,84.413L909.345,84.621L909.297,84.828L909.242,85.032L909.179,85.234L909.11,85.434L909.033,85.632L908.949,85.826L908.859,86.018L908.762,86.206L908.658,86.391L908.548,86.571L908.431,86.748L908.309,86.921L908.18,87.089L908.045,87.253L907.905,87.411L907.759,87.565L907.608,87.713L907.452,87.856L907.291,87.994L907.125,88.125L906.955,88.251L906.78,88.371L906.601,88.484L906.418,88.591L906.232,88.692L906.042,88.785L905.849,88.872L905.653,88.953L905.454,89.026L905.253,89.092L905.049,89.151L904.844,89.203L904.637,89.247L904.429,89.284L904.219,89.314L904.008,89.337L903.797,89.352L903.585,89.359L903.374,89.359L903.162,89.352L902.951,89.337L902.74,89.314L902.53,89.284L902.322,89.247L902.115,89.203L901.91,89.151L901.706,89.092L901.505,89.026L901.306,88.953L901.11,88.872L900.917,88.785L900.727,88.692L900.541,88.591L900.358,88.484L900.179,88.371L900.004,88.251L899.834,88.125L899.668,87.994L899.507,87.856L899.351,87.713L899.2,87.565L899.054,87.411L898.914,87.253L898.779,87.089L898.65,86.921L898.528,86.748L898.411,86.571L898.301,86.391L898.197,86.206L898.1,86.018L898.01,85.826L897.926,85.632L897.849,85.434L897.78,85.234L897.717,85.032L897.662,84.828L897.614,84.621L897.573,84.413L897.539,84.204L897.513,83.994L897.494,83.783L897.483,83.572L897.479,83.36L897.479,64.64L897.483,64.428L897.494,64.217L897.513,64.006L897.539,63.796L897.573,63.587L897.614,63.379L897.662,63.172L897.717,62.968L897.78,62.766L897.849,62.566L897.926,62.368L898.01,62.174L898.1,61.982L898.197,61.794L898.301,61.609L898.411,61.429L898.528,61.252L898.65,61.079L898.779,60.911L898.914,60.747L899.054,60.589L899.2,60.435L899.351,60.287L899.507,60.144L899.668,60.006L899.834,59.875L900.004,59.749L900.179,59.629L900.358,59.516L900.541,59.409L900.727,59.308L900.917,59.215L901.11,59.128L901.306,59.047L901.505,58.974L901.706,58.908L901.91,58.849L902.115,58.797L902.322,58.753L902.53,58.716L902.74,58.686L902.951,58.663L903.162,58.648L903.374,58.641L903.585,58.641L903.797,58.648Z" style="fill:rgb(36,251,202);"/>
            <path d="M86.679,74L903.479,74" style="fill:none;stroke:rgb(36,251,202);stroke-width:12px;"/>
        </g>
    </g>
    <g id="Lab-Tech" serif:id="Lab Tech" transform="matrix(1.23403,0,0,1.70164,371.639,-776.663)">
        <g transform="matrix(0.810355,-0,-0,0.587669,-301.16,456.421)">
            <path d="M477.518,90.748L477.729,90.763L477.939,90.786L478.149,90.816L478.358,90.853L478.565,90.897L478.77,90.949L478.973,91.008L479.175,91.074L479.373,91.147L479.569,91.228L479.762,91.315L479.952,91.408L480.139,91.509L480.321,91.616L480.5,91.729L480.675,91.849L480.846,91.975L481.011,92.106L481.173,92.244L481.329,92.387L481.48,92.535L481.626,92.689L481.766,92.847L481.9,93.011L482.029,93.179L482.152,93.352L482.268,93.529L482.378,93.709L482.482,93.894L482.579,94.082L482.67,94.274L482.753,94.468L482.83,94.666L482.9,94.866L482.962,95.068L483.018,95.272L483.066,95.479L483.107,95.687L483.14,95.896L483.166,96.106L483.185,96.317L483.196,96.528L483.2,96.74L483.2,115.46L483.196,115.672L483.185,115.883L483.166,116.094L483.14,116.304L483.107,116.513L483.066,116.721L483.018,116.928L482.962,117.132L482.9,117.334L482.83,117.534L482.753,117.732L482.67,117.926L482.579,118.118L482.482,118.306L482.378,118.491L482.268,118.671L482.152,118.848L482.029,119.021L481.9,119.189L481.766,119.353L481.626,119.511L481.48,119.665L481.329,119.813L481.173,119.956L481.011,120.094L480.846,120.225L480.675,120.351L480.5,120.471L480.321,120.584L480.139,120.691L479.952,120.792L479.762,120.885L479.569,120.972L479.373,121.053L479.175,121.126L478.973,121.192L478.77,121.251L478.565,121.303L478.358,121.347L478.149,121.384L477.939,121.414L477.729,121.437L477.518,121.452L477.306,121.459L477.094,121.459L476.882,121.452L476.671,121.437L476.461,121.414L476.251,121.384L476.042,121.347L475.835,121.303L475.63,121.251L475.427,121.192L475.225,121.126L475.027,121.053L474.831,120.972L474.638,120.885L474.448,120.792L474.261,120.691L474.079,120.584L473.9,120.471L473.725,120.351L473.554,120.225L473.389,120.094L473.227,119.956L473.071,119.813L472.92,119.665L472.774,119.511L472.634,119.353L472.5,119.189L472.371,119.021L472.248,118.848L472.132,118.671L472.022,118.491L471.918,118.306L471.821,118.118L471.73,117.926L471.647,117.732L471.57,117.534L471.5,117.334L471.438,117.132L471.382,116.928L471.334,116.721L471.293,116.513L471.26,116.304L471.234,116.094L471.215,115.883L471.204,115.672L471.2,115.46L471.2,96.74L471.204,96.528L471.215,96.317L471.234,96.106L471.26,95.896L471.293,95.687L471.334,95.479L471.382,95.272L471.438,95.068L471.5,94.866L471.57,94.666L471.647,94.468L471.73,94.274L471.821,94.082L471.918,93.894L472.022,93.709L472.132,93.529L472.248,93.352L472.371,93.179L472.5,93.011L472.634,92.847L472.774,92.689L472.92,92.535L473.071,92.387L473.227,92.244L473.389,92.106L473.554,91.975L473.725,91.849L473.9,91.729L474.079,91.616L474.261,91.509L474.448,91.408L474.638,91.315L474.831,91.228L475.027,91.147L475.225,91.074L475.427,91.008L475.63,90.949L475.835,90.897L476.042,90.853L476.251,90.816L476.461,90.786L476.671,90.763L476.882,90.748L477.094,90.741L477.306,90.741L477.518,90.748Z" style="fill:rgb(255,199,0);"/>
            <path d="M1488.32,90.748L1488.53,90.763L1488.74,90.786L1488.95,90.816L1489.16,90.853L1489.37,90.897L1489.57,90.949L1489.77,91.008L1489.98,91.074L1490.17,91.147L1490.37,91.228L1490.56,91.315L1490.75,91.408L1490.94,91.509L1491.12,91.616L1491.3,91.729L1491.48,91.849L1491.65,91.975L1491.81,92.106L1491.97,92.244L1492.13,92.387L1492.28,92.535L1492.43,92.689L1492.57,92.847L1492.7,93.011L1492.83,93.179L1492.95,93.352L1493.07,93.529L1493.18,93.709L1493.28,93.894L1493.38,94.082L1493.47,94.274L1493.55,94.468L1493.63,94.666L1493.7,94.866L1493.76,95.068L1493.82,95.272L1493.87,95.479L1493.91,95.687L1493.94,95.896L1493.97,96.106L1493.99,96.317L1494,96.528L1494,96.74L1494,115.46L1494,115.672L1493.99,115.883L1493.97,116.094L1493.94,116.304L1493.91,116.513L1493.87,116.721L1493.82,116.928L1493.76,117.132L1493.7,117.334L1493.63,117.534L1493.55,117.732L1493.47,117.926L1493.38,118.118L1493.28,118.306L1493.18,118.491L1493.07,118.671L1492.95,118.848L1492.83,119.021L1492.7,119.189L1492.57,119.353L1492.43,119.511L1492.28,119.665L1492.13,119.813L1491.97,119.956L1491.81,120.094L1491.65,120.225L1491.48,120.351L1491.3,120.471L1491.12,120.584L1490.94,120.691L1490.75,120.792L1490.56,120.885L1490.37,120.972L1490.17,121.053L1489.98,121.126L1489.77,121.192L1489.57,121.251L1489.37,121.303L1489.16,121.347L1488.95,121.384L1488.74,121.414L1488.53,121.437L1488.32,121.452L1488.11,121.459L1487.89,121.459L1487.68,121.452L1487.47,121.437L1487.26,121.414L1487.05,121.384L1486.84,121.347L1486.63,121.303L1486.43,121.251L1486.23,121.192L1486.03,121.126L1485.83,121.053L1485.63,120.972L1485.44,120.885L1485.25,120.792L1485.06,120.691L1484.88,120.584L1484.7,120.471L1484.53,120.351L1484.35,120.225L1484.19,120.094L1484.03,119.956L1483.87,119.813L1483.72,119.665L1483.57,119.511L1483.43,119.353L1483.3,119.189L1483.17,119.021L1483.05,118.848L1482.93,118.671L1482.82,118.491L1482.72,118.306L1482.62,118.118L1482.53,117.926L1482.45,117.732L1482.37,117.534L1482.3,117.334L1482.24,117.132L1482.18,116.928L1482.13,116.721L1482.09,116.513L1482.06,116.304L1482.03,116.094L1482.02,115.883L1482,115.672L1482,115.46L1482,96.74L1482,96.528L1482.02,96.317L1482.03,96.106L1482.06,95.896L1482.09,95.687L1482.13,95.479L1482.18,95.272L1482.24,95.068L1482.3,94.866L1482.37,94.666L1482.45,94.468L1482.53,94.274L1482.62,94.082L1482.72,93.894L1482.82,93.709L1482.93,93.529L1483.05,93.352L1483.17,93.179L1483.3,93.011L1483.43,92.847L1483.57,92.689L1483.72,92.535L1483.87,92.387L1484.03,92.244L1484.19,92.106L1484.35,91.975L1484.53,91.849L1484.7,91.729L1484.88,91.616L1485.06,91.509L1485.25,91.408L1485.44,91.315L1485.63,91.228L1485.83,91.147L1486.03,91.074L1486.23,91.008L1486.43,90.949L1486.63,90.897L1486.84,90.853L1487.05,90.816L1487.26,90.786L1487.47,90.763L1487.68,90.748L1487.89,90.741L1488.11,90.741L1488.32,90.748Z" style="fill:rgb(255,199,0);"/>
            <path d="M477.2,106.1L1488,106.1" style="fill:none;stroke:rgb(255,199,0);stroke-width:12px;"/>
        </g>
    </g>
    <g id="Homework-Grader1" serif:id="Homework Grader" transform="matrix(0.34977,0,0,1.70164,1027.48,-808.763)">
        <g transform="matrix(2.85902,-0,-0,0.587669,-2937.59,475.285)">
            <path d="M1062.02,58.648L1062.23,58.663L1062.44,58.686L1062.65,58.716L1062.86,58.753L1063.07,58.797L1063.27,58.849L1063.47,58.908L1063.67,58.974L1063.87,59.047L1064.07,59.128L1064.26,59.215L1064.45,59.308L1064.64,59.409L1064.82,59.516L1065,59.629L1065.17,59.749L1065.35,59.875L1065.51,60.006L1065.67,60.144L1065.83,60.287L1065.98,60.435L1066.13,60.589L1066.27,60.747L1066.4,60.911L1066.53,61.079L1066.65,61.252L1066.77,61.429L1066.88,61.609L1066.98,61.794L1067.08,61.982L1067.17,62.174L1067.25,62.368L1067.33,62.566L1067.4,62.766L1067.46,62.968L1067.52,63.172L1067.57,63.379L1067.61,63.587L1067.64,63.796L1067.67,64.006L1067.68,64.217L1067.7,64.428L1067.7,64.64L1067.7,83.36L1067.7,83.572L1067.68,83.783L1067.67,83.994L1067.64,84.204L1067.61,84.413L1067.57,84.621L1067.52,84.828L1067.46,85.032L1067.4,85.234L1067.33,85.434L1067.25,85.632L1067.17,85.826L1067.08,86.018L1066.98,86.206L1066.88,86.391L1066.77,86.571L1066.65,86.748L1066.53,86.921L1066.4,87.089L1066.27,87.253L1066.13,87.411L1065.98,87.565L1065.83,87.713L1065.67,87.856L1065.51,87.994L1065.35,88.125L1065.17,88.251L1065,88.371L1064.82,88.484L1064.64,88.591L1064.45,88.692L1064.26,88.785L1064.07,88.872L1063.87,88.953L1063.67,89.026L1063.47,89.092L1063.27,89.151L1063.07,89.203L1062.86,89.247L1062.65,89.284L1062.44,89.314L1062.23,89.337L1062.02,89.352L1061.81,89.359L1061.59,89.359L1061.38,89.352L1061.17,89.337L1060.96,89.314L1060.75,89.284L1060.54,89.247L1060.34,89.203L1060.13,89.151L1059.93,89.092L1059.72,89.026L1059.53,88.953L1059.33,88.872L1059.14,88.785L1058.95,88.692L1058.76,88.591L1058.58,88.484L1058.4,88.371L1058.22,88.251L1058.05,88.125L1057.89,87.994L1057.73,87.856L1057.57,87.713L1057.42,87.565L1057.27,87.411L1057.13,87.253L1057,87.089L1056.87,86.921L1056.75,86.748L1056.63,86.571L1056.52,86.391L1056.42,86.206L1056.32,86.018L1056.23,85.826L1056.15,85.632L1056.07,85.434L1056,85.234L1055.94,85.032L1055.88,84.828L1055.83,84.621L1055.79,84.413L1055.76,84.204L1055.73,83.994L1055.71,83.783L1055.7,83.572L1055.7,83.36L1055.7,64.64L1055.7,64.428L1055.71,64.217L1055.73,64.006L1055.76,63.796L1055.79,63.587L1055.83,63.379L1055.88,63.172L1055.94,62.968L1056,62.766L1056.07,62.566L1056.15,62.368L1056.23,62.174L1056.32,61.982L1056.42,61.794L1056.52,61.609L1056.63,61.429L1056.75,61.252L1056.87,61.079L1057,60.911L1057.13,60.747L1057.27,60.589L1057.42,60.435L1057.57,60.287L1057.73,60.144L1057.89,60.006L1058.05,59.875L1058.22,59.749L1058.4,59.629L1058.58,59.516L1058.76,59.409L1058.95,59.308L1059.14,59.215L1059.33,59.128L1059.53,59.047L1059.72,58.974L1059.93,58.908L1060.13,58.849L1060.34,58.797L1060.54,58.753L1060.75,58.716L1060.96,58.686L1061.17,58.663L1061.38,58.648L1061.59,58.641L1061.81,58.641L1062.02,58.648Z" style="fill:rgb(33,201,239);"/>
            <path d="M1339.92,58.648L1340.13,58.663L1340.34,58.686L1340.55,58.716L1340.76,58.753L1340.96,58.797L1341.17,58.849L1341.37,58.908L1341.58,58.974L1341.77,59.047L1341.97,59.128L1342.16,59.215L1342.35,59.308L1342.54,59.409L1342.72,59.516L1342.9,59.629L1343.08,59.749L1343.25,59.875L1343.41,60.006L1343.57,60.144L1343.73,60.287L1343.88,60.435L1344.03,60.589L1344.17,60.747L1344.3,60.911L1344.43,61.079L1344.55,61.252L1344.67,61.429L1344.78,61.609L1344.88,61.794L1344.98,61.982L1345.07,62.174L1345.15,62.368L1345.23,62.566L1345.3,62.766L1345.36,62.968L1345.42,63.172L1345.47,63.379L1345.51,63.587L1345.54,63.796L1345.57,64.006L1345.59,64.217L1345.6,64.428L1345.6,64.64L1345.6,83.36L1345.6,83.572L1345.59,83.783L1345.57,83.994L1345.54,84.204L1345.51,84.413L1345.47,84.621L1345.42,84.828L1345.36,85.032L1345.3,85.234L1345.23,85.434L1345.15,85.632L1345.07,85.826L1344.98,86.018L1344.88,86.206L1344.78,86.391L1344.67,86.571L1344.55,86.748L1344.43,86.921L1344.3,87.089L1344.17,87.253L1344.03,87.411L1343.88,87.565L1343.73,87.713L1343.57,87.856L1343.41,87.994L1343.25,88.125L1343.08,88.251L1342.9,88.371L1342.72,88.484L1342.54,88.591L1342.35,88.692L1342.16,88.785L1341.97,88.872L1341.77,88.953L1341.58,89.026L1341.37,89.092L1341.17,89.151L1340.96,89.203L1340.76,89.247L1340.55,89.284L1340.34,89.314L1340.13,89.337L1339.92,89.352L1339.71,89.359L1339.49,89.359L1339.28,89.352L1339.07,89.337L1338.86,89.314L1338.65,89.284L1338.44,89.247L1338.24,89.203L1338.03,89.151L1337.83,89.092L1337.63,89.026L1337.43,88.953L1337.23,88.872L1337.04,88.785L1336.85,88.692L1336.66,88.591L1336.48,88.484L1336.3,88.371L1336.12,88.251L1335.95,88.125L1335.79,87.994L1335.63,87.856L1335.47,87.713L1335.32,87.565L1335.17,87.411L1335.03,87.253L1334.9,87.089L1334.77,86.921L1334.65,86.748L1334.53,86.571L1334.42,86.391L1334.32,86.206L1334.22,86.018L1334.13,85.826L1334.05,85.632L1333.97,85.434L1333.9,85.234L1333.84,85.032L1333.78,84.828L1333.73,84.621L1333.69,84.413L1333.66,84.204L1333.63,83.994L1333.62,83.783L1333.6,83.572L1333.6,83.36L1333.6,64.64L1333.6,64.428L1333.62,64.217L1333.63,64.006L1333.66,63.796L1333.69,63.587L1333.73,63.379L1333.78,63.172L1333.84,62.968L1333.9,62.766L1333.97,62.566L1334.05,62.368L1334.13,62.174L1334.22,61.982L1334.32,61.794L1334.42,61.609L1334.53,61.429L1334.65,61.252L1334.77,61.079L1334.9,60.911L1335.03,60.747L1335.17,60.589L1335.32,60.435L1335.47,60.287L1335.63,60.144L1335.79,60.006L1335.95,59.875L1336.12,59.749L1336.3,59.629L1336.48,59.516L1336.66,59.409L1336.85,59.308L1337.04,59.215L1337.23,59.128L1337.43,59.047L1337.63,58.974L1337.83,58.908L1338.03,58.849L1338.24,58.797L1338.44,58.753L1338.65,58.716L1338.86,58.686L1339.07,58.663L1339.28,58.648L1339.49,58.641L1339.71,58.641L1339.92,58.648Z" style="fill:rgb(33,201,239);"/>
            <path d="M1061.7,74L1339.6,74" style="fill:none;stroke:rgb(33,201,239);stroke-width:12px;"/>
        </g>
    </g>
    <g id="VRONCOS" transform="matrix(0.529179,0,0,1.70164,1013.01,-847.426)">
        <g transform="matrix(1.88972,-0,-0,0.587669,-1914.3,498.006)">
            <path d="M1062.02,19.986L1062.23,20.001L1062.44,20.023L1062.65,20.053L1062.86,20.09L1063.07,20.135L1063.27,20.187L1063.47,20.246L1063.67,20.312L1063.87,20.385L1064.07,20.465L1064.26,20.552L1064.45,20.646L1064.64,20.746L1064.82,20.853L1065,20.967L1065.17,21.086L1065.35,21.212L1065.51,21.344L1065.67,21.481L1065.83,21.624L1065.98,21.773L1066.13,21.926L1066.27,22.085L1066.4,22.248L1066.53,22.417L1066.65,22.589L1066.77,22.766L1066.88,22.947L1066.98,23.132L1067.08,23.32L1067.17,23.511L1067.25,23.706L1067.33,23.903L1067.4,24.103L1067.46,24.306L1067.52,24.51L1067.57,24.716L1067.61,24.924L1067.64,25.133L1067.67,25.343L1067.68,25.554L1067.7,25.766L1067.7,25.978L1067.7,44.698L1067.7,44.909L1067.68,45.121L1067.67,45.332L1067.64,45.542L1067.61,45.751L1067.57,45.959L1067.52,46.165L1067.46,46.369L1067.4,46.572L1067.33,46.772L1067.25,46.969L1067.17,47.164L1067.08,47.355L1066.98,47.543L1066.88,47.728L1066.77,47.909L1066.65,48.086L1066.53,48.258L1066.4,48.427L1066.27,48.59L1066.13,48.749L1065.98,48.903L1065.83,49.051L1065.67,49.194L1065.51,49.331L1065.35,49.463L1065.17,49.589L1065,49.708L1064.82,49.822L1064.64,49.929L1064.45,50.029L1064.26,50.123L1064.07,50.21L1063.87,50.29L1063.67,50.363L1063.47,50.429L1063.27,50.489L1063.07,50.54L1062.86,50.585L1062.65,50.622L1062.44,50.652L1062.23,50.674L1062.02,50.689L1061.81,50.697L1061.59,50.697L1061.38,50.689L1061.17,50.674L1060.96,50.652L1060.75,50.622L1060.54,50.585L1060.34,50.54L1060.13,50.489L1059.93,50.429L1059.72,50.363L1059.53,50.29L1059.33,50.21L1059.14,50.123L1058.95,50.029L1058.76,49.929L1058.58,49.822L1058.4,49.708L1058.22,49.589L1058.05,49.463L1057.89,49.331L1057.73,49.194L1057.57,49.051L1057.42,48.903L1057.27,48.749L1057.13,48.59L1057,48.427L1056.87,48.258L1056.75,48.086L1056.63,47.909L1056.52,47.728L1056.42,47.543L1056.32,47.355L1056.23,47.164L1056.15,46.969L1056.07,46.772L1056,46.572L1055.94,46.369L1055.88,46.165L1055.83,45.959L1055.79,45.751L1055.76,45.542L1055.73,45.332L1055.71,45.121L1055.7,44.909L1055.7,44.698L1055.7,25.978L1055.7,25.766L1055.71,25.554L1055.73,25.343L1055.76,25.133L1055.79,24.924L1055.83,24.716L1055.88,24.51L1055.94,24.306L1056,24.103L1056.07,23.903L1056.15,23.706L1056.23,23.511L1056.32,23.32L1056.42,23.132L1056.52,22.947L1056.63,22.766L1056.75,22.589L1056.87,22.417L1057,22.248L1057.13,22.085L1057.27,21.926L1057.42,21.773L1057.57,21.624L1057.73,21.481L1057.89,21.344L1058.05,21.212L1058.22,21.086L1058.4,20.967L1058.58,20.853L1058.76,20.746L1058.95,20.646L1059.14,20.552L1059.33,20.465L1059.53,20.385L1059.72,20.312L1059.93,20.246L1060.13,20.187L1060.34,20.135L1060.54,20.09L1060.75,20.053L1060.96,20.023L1061.17,20.001L1061.38,19.986L1061.59,19.978L1061.81,19.978L1062.02,19.986Z" style="fill:rgb(239,71,111);"/>
            <path d="M1488.62,19.986L1488.83,20.001L1489.04,20.023L1489.25,20.053L1489.46,20.09L1489.66,20.135L1489.87,20.187L1490.07,20.246L1490.28,20.312L1490.47,20.385L1490.67,20.465L1490.86,20.552L1491.05,20.646L1491.24,20.746L1491.42,20.853L1491.6,20.967L1491.78,21.086L1491.95,21.212L1492.11,21.344L1492.27,21.481L1492.43,21.624L1492.58,21.773L1492.73,21.926L1492.87,22.085L1493,22.248L1493.13,22.417L1493.25,22.589L1493.37,22.766L1493.48,22.947L1493.58,23.132L1493.68,23.32L1493.77,23.511L1493.85,23.706L1493.93,23.903L1494,24.103L1494.06,24.306L1494.12,24.51L1494.17,24.716L1494.21,24.924L1494.24,25.133L1494.27,25.343L1494.29,25.554L1494.3,25.766L1494.3,25.978L1494.3,44.698L1494.3,44.909L1494.29,45.121L1494.27,45.332L1494.24,45.542L1494.21,45.751L1494.17,45.959L1494.12,46.165L1494.06,46.369L1494,46.572L1493.93,46.772L1493.85,46.969L1493.77,47.164L1493.68,47.355L1493.58,47.543L1493.48,47.728L1493.37,47.909L1493.25,48.086L1493.13,48.258L1493,48.427L1492.87,48.59L1492.73,48.749L1492.58,48.903L1492.43,49.051L1492.27,49.194L1492.11,49.331L1491.95,49.463L1491.78,49.589L1491.6,49.708L1491.42,49.822L1491.24,49.929L1491.05,50.029L1490.86,50.123L1490.67,50.21L1490.47,50.29L1490.28,50.363L1490.07,50.429L1489.87,50.489L1489.66,50.54L1489.46,50.585L1489.25,50.622L1489.04,50.652L1488.83,50.674L1488.62,50.689L1488.41,50.697L1488.19,50.697L1487.98,50.689L1487.77,50.674L1487.56,50.652L1487.35,50.622L1487.14,50.585L1486.93,50.54L1486.73,50.489L1486.53,50.429L1486.33,50.363L1486.13,50.29L1485.93,50.21L1485.74,50.123L1485.55,50.029L1485.36,49.929L1485.18,49.822L1485,49.708L1484.83,49.589L1484.65,49.463L1484.49,49.331L1484.33,49.194L1484.17,49.051L1484.02,48.903L1483.87,48.749L1483.73,48.59L1483.6,48.427L1483.47,48.258L1483.35,48.086L1483.23,47.909L1483.12,47.728L1483.02,47.543L1482.92,47.355L1482.83,47.164L1482.75,46.969L1482.67,46.772L1482.6,46.572L1482.54,46.369L1482.48,46.165L1482.43,45.959L1482.39,45.751L1482.36,45.542L1482.33,45.332L1482.32,45.121L1482.3,44.909L1482.3,44.698L1482.3,25.978L1482.3,25.766L1482.32,25.554L1482.33,25.343L1482.36,25.133L1482.39,24.924L1482.43,24.716L1482.48,24.51L1482.54,24.306L1482.6,24.103L1482.67,23.903L1482.75,23.706L1482.83,23.511L1482.92,23.32L1483.02,23.132L1483.12,22.947L1483.23,22.766L1483.35,22.589L1483.47,22.417L1483.6,22.248L1483.73,22.085L1483.87,21.926L1484.02,21.773L1484.17,21.624L1484.33,21.481L1484.49,21.344L1484.65,21.212L1484.83,21.086L1485,20.967L1485.18,20.853L1485.36,20.746L1485.55,20.646L1485.74,20.552L1485.93,20.465L1486.13,20.385L1486.33,20.312L1486.53,20.246L1486.73,20.187L1486.93,20.135L1487.14,20.09L1487.35,20.053L1487.56,20.023L1487.77,20.001L1487.98,19.986L1488.19,19.978L1488.41,19.978L1488.62,19.986Z" style="fill:rgb(239,71,111);"/>
            <path d="M1061.7,35.338L1488.3,35.338" style="fill:none;stroke:rgb(239,71,111);stroke-width:12px;"/>
        </g>
    </g>
</svg>
