<svg class="skill-image" viewBox="0 0 50 50">
   <path fill="var(--ghostwhite)"
      d="M 25 2 C 22.833333 2 21.365989 2.5541841 20.445312 3.1679688 C 19.524636 3.7817532 19.105469 4.5527344 19.105469 4.5527344 L 19 4.7636719 L 19 6.7363281 C 18.935858 6.811235 18.831158 6.9226031 18.609375 7.1074219 C 17.960125 7.6484633 16.512982 8.6253445 13.552734 10.105469 C 9.8653314 11.949171 7.9242159 14.396742 6.9628906 16.525391 C 6.0844958 18.470408 6.0126218 20.127236 6.0058594 20.789062 C 2.9971851 22.754579 1 26.147409 1 30 L 1 37 C 1 43.063407 5.9365932 48 12 48 L 25 48 L 38 48 C 44.063407 48 49 43.063407 49 37 L 49 30 C 49 26.147409 47.002815 22.754579 43.994141 20.789062 C 43.987373 20.127236 43.915473 18.470408 43.037109 16.525391 C 42.075784 14.396742 40.134669 11.949171 36.447266 10.105469 C 33.487018 8.6253445 32.039875 7.6484633 31.390625 7.1074219 C 31.168842 6.9226031 31.064142 6.811235 31 6.7363281 L 31 4.7636719 L 30.894531 4.5527344 C 30.894531 4.5527344 30.475364 3.7817534 29.554688 3.1679688 C 28.63401 2.5541839 27.166667 2 25 2 z M 25 4 C 26.833333 4 27.865989 4.4458159 28.445312 4.8320312 C 28.93236 5.1567291 28.969416 5.2898206 29 5.3496094 L 29 19 L 21 19 L 21 5.3496094 C 21.030584 5.2898206 21.06764 5.156729 21.554688 4.8320312 C 22.134011 4.445816 23.166667 4 25 4 z M 19 9.3066406 L 19 13.052734 C 16.949367 13.256667 15.115676 14.069262 13.71875 15.183594 C 12.386801 16.246093 11.419781 17.593038 11.113281 19.044922 C 10.05509 19.130025 9.0412015 19.367717 8.0878906 19.732422 C 8.1803962 19.084268 8.3712169 18.270509 8.7871094 17.349609 C 9.5757841 15.603258 11.134669 13.550829 14.447266 11.894531 C 16.653085 10.791622 18.060236 9.9561596 19 9.3066406 z M 31 9.3066406 C 31.939764 9.9561596 33.346915 10.791622 35.552734 11.894531 C 38.865331 13.550829 40.424216 15.603258 41.212891 17.349609 C 41.62878 18.270509 41.819603 19.084268 41.912109 19.732422 C 40.958798 19.367717 39.94491 19.130025 38.886719 19.044922 C 38.580219 17.593038 37.613199 16.246093 36.28125 15.183594 C 34.884324 14.069262 33.050633 13.256667 31 13.052734 L 31 9.3066406 z M 19 15.070312 L 19 19 L 15 19 L 13.21875 19 C 13.512774 18.250645 14.10123 17.436559 14.966797 16.746094 C 16.021141 15.90504 17.432796 15.268023 19 15.070312 z M 31 15.070312 C 32.567204 15.268022 33.978859 15.90504 35.033203 16.746094 C 35.89877 17.436559 36.487226 18.250645 36.78125 19 L 35 19 L 31 19 L 31 15.070312 z M 12 21 L 15.101562 21 C 15.568452 23.274577 17.592847 25 20 25 L 24 25 L 24 38.101562 C 21.725392 38.56844 20 40.592791 20 43 C 20 44.127962 20.392756 45.160947 21.029297 46 L 14.498047 46 A 2.5 2.5 0 0 0 15 44.5 A 2.5 2.5 0 0 0 12.5 42 A 2.5 2.5 0 0 0 10 44.5 A 2.5 2.5 0 0 0 10.400391 45.851562 C 6.1866574 45.098697 3 41.43527 3 37 L 3 30 C 3 25.017407 7.0174068 21 12 21 z M 17.412109 21 L 32.587891 21 C 32.150803 22.112465 31.275852 23 30 23 L 20 23 C 18.724148 23 17.849197 22.112465 17.412109 21 z M 34.898438 21 L 38 21 C 42.982593 21 47 25.017407 47 30 L 47 37 C 47 41.43384 43.815226 45.095106 39.603516 45.849609 A 2.5 2.5 0 0 0 40 44.5 A 2.5 2.5 0 0 0 37.5 42 A 2.5 2.5 0 0 0 35 44.5 A 2.5 2.5 0 0 0 35.503906 46 L 28.970703 46 C 29.607244 45.160947 30 44.127962 30 43 C 30 40.592791 28.274608 38.56844 26 38.101562 L 26 25 L 30 25 C 32.407153 25 34.431548 23.274577 34.898438 21 z M 12.5 23 A 2.5 2.5 0 0 0 10 25.5 A 2.5 2.5 0 0 0 12.5 28 A 2.5 2.5 0 0 0 15 25.5 A 2.5 2.5 0 0 0 12.5 23 z M 37.5 23 A 2.5 2.5 0 0 0 35 25.5 A 2.5 2.5 0 0 0 37.5 28 A 2.5 2.5 0 0 0 40 25.5 A 2.5 2.5 0 0 0 37.5 23 z M 18.5 27 A 2.5 2.5 0 0 0 16 29.5 A 2.5 2.5 0 0 0 18.5 32 A 2.5 2.5 0 0 0 21 29.5 A 2.5 2.5 0 0 0 18.5 27 z M 31.5 27 A 2.5 2.5 0 0 0 29 29.5 A 2.5 2.5 0 0 0 31.5 32 A 2.5 2.5 0 0 0 34 29.5 A 2.5 2.5 0 0 0 31.5 27 z M 7.5 32 A 2.5 2.5 0 0 0 5 34.5 A 2.5 2.5 0 0 0 7.5 37 A 2.5 2.5 0 0 0 10 34.5 A 2.5 2.5 0 0 0 7.5 32 z M 42.5 32 A 2.5 2.5 0 0 0 40 34.5 A 2.5 2.5 0 0 0 42.5 37 A 2.5 2.5 0 0 0 45 34.5 A 2.5 2.5 0 0 0 42.5 32 z M 25 40 C 26.668699 40 28 41.331301 28 43 C 28 44.668699 26.668699 46 25 46 C 23.331301 46 22 44.668699 22 43 C 22 41.331301 23.331301 40 25 40 z M 25 42 A 1 1 0 0 0 24 43 A 1 1 0 0 0 25 44 A 1 1 0 0 0 26 43 A 1 1 0 0 0 25 42 z">
   </path>
</svg>
